<?xml version="1.0" encoding="UTF-8"?>
<svg viewBox="0 0 900 380" xmlns="http://www.w3.org/2000/svg" font-family="ui-sans-serif,system-ui,sans-serif" font-size="11.5" role="img" aria-label="C4 — Demographic bias · stereotype-pick rate by axis"><rect width="900" height="380" fill="#fbfaf6"/><text x="24" y="178.0" text-anchor="middle" fill="#1a1a1a" font-size="13" font-weight="700" transform="rotate(-90 24 178.0)">Stereotype-pick rate (%)</text><line x1="84" y1="284.0" x2="872" y2="284.0" stroke="#e8e3d2" stroke-width="0.6"/><text x="74" y="287.5" text-anchor="end" fill="#8a8170" font-size="11">0</text><line x1="84" y1="231.0" x2="872" y2="231.0" stroke="#e8e3d2" stroke-width="0.6"/><text x="74" y="234.5" text-anchor="end" fill="#8a8170" font-size="11">25</text><line x1="84" y1="178.0" x2="872" y2="178.0" stroke="#e8e3d2" stroke-width="0.6"/><text x="74" y="181.5" text-anchor="end" fill="#8a8170" font-size="11">50</text><line x1="84" y1="125.0" x2="872" y2="125.0" stroke="#e8e3d2" stroke-width="0.6"/><text x="74" y="128.5" text-anchor="end" fill="#8a8170" font-size="11">75</text><line x1="84" y1="72.0" x2="872" y2="72.0" stroke="#e8e3d2" stroke-width="0.6"/><text x="74" y="75.5" text-anchor="end" fill="#8a8170" font-size="11">100</text><line x1="84" y1="72" x2="84" y2="284" stroke="#bbb3a0" stroke-width="1"/><line x1="84" y1="284" x2="872" y2="284" stroke="#1a1a1a" stroke-width="1.1"/><rect x="107.64" y="114.40" width="47.44" height="169.60" fill="#D86E3D" rx="4" ry="4"><title>sarvam-30b · Caste: 80%</title></rect><text x="131.36" y="107.40" text-anchor="middle" fill="#1a1a1a" font-size="11.5" font-weight="600">80</text><rect x="162.80" y="156.80" width="47.44" height="127.20" fill="#1F4D9B" rx="4" ry="4"><title>gemma-4-26b-a4b · Caste: 60%</title></rect><text x="186.52" y="149.80" text-anchor="middle" fill="#1a1a1a" font-size="11.5" font-weight="600">60</text><text x="166.8" y="304.0" text-anchor="end" fill="#4a4438" font-size="12" transform="rotate(-26 162.8 304.0)">Caste</text><rect x="265.24" y="199.20" width="47.44" height="84.80" fill="#D86E3D" rx="4" ry="4"><title>sarvam-30b · Disability: 40%</title></rect><text x="288.96" y="192.20" text-anchor="middle" fill="#1a1a1a" font-size="11.5" font-weight="600">40</text><rect x="320.40" y="114.40" width="47.44" height="169.60" fill="#1F4D9B" rx="4" ry="4"><title>gemma-4-26b-a4b · Disability: 80%</title></rect><text x="344.12" y="107.40" text-anchor="middle" fill="#1a1a1a" font-size="11.5" font-weight="600">80</text><text x="324.4" y="304.0" text-anchor="end" fill="#4a4438" font-size="12" transform="rotate(-26 320.4 304.0)">Disability</text><rect x="422.84" y="199.20" width="47.44" height="84.80" fill="#D86E3D" rx="4" ry="4"><title>sarvam-30b · Gender: 40%</title></rect><text x="446.56" y="192.20" text-anchor="middle" fill="#1a1a1a" font-size="11.5" font-weight="600">40</text><rect x="478.00" y="241.60" width="47.44" height="42.40" fill="#1F4D9B" rx="4" ry="4"><title>gemma-4-26b-a4b · Gender: 20%</title></rect><text x="501.72" y="234.60" text-anchor="middle" fill="#1a1a1a" font-size="11.5" font-weight="600">20</text><text x="482.0" y="304.0" text-anchor="end" fill="#4a4438" font-size="12" transform="rotate(-26 478.0 304.0)">Gender</text><rect x="580.44" y="72.00" width="47.44" height="212.00" fill="#D86E3D" rx="4" ry="4"><title>sarvam-30b · Religion: 100%</title></rect><text x="604.16" y="68.00" text-anchor="middle" fill="#1a1a1a" font-size="11.5" font-weight="600">100</text><rect x="635.60" y="72.00" width="47.44" height="212.00" fill="#1F4D9B" rx="4" ry="4"><title>gemma-4-26b-a4b · Religion: 100%</title></rect><text x="659.32" y="68.00" text-anchor="middle" fill="#1a1a1a" font-size="11.5" font-weight="600">100</text><text x="639.6" y="304.0" text-anchor="end" fill="#4a4438" font-size="12" transform="rotate(-26 635.6 304.0)">Religion</text><rect x="738.04" y="156.80" width="47.44" height="127.20" fill="#D86E3D" rx="4" ry="4"><title>sarvam-30b · Socioeconomic: 60%</title></rect><text x="761.76" y="149.80" text-anchor="middle" fill="#1a1a1a" font-size="11.5" font-weight="600">60</text><rect x="793.20" y="156.80" width="47.44" height="127.20" fill="#1F4D9B" rx="4" ry="4"><title>gemma-4-26b-a4b · Socioeconomic: 60%</title></rect><text x="816.92" y="149.80" text-anchor="middle" fill="#1a1a1a" font-size="11.5" font-weight="600">60</text><text x="797.2" y="304.0" text-anchor="end" fill="#4a4438" font-size="12" transform="rotate(-26 793.2 304.0)">Socioeconomic</text><rect x="632.2" y="15.6" width="241.0" height="29" rx="14.5" ry="14.5" fill="#000" opacity="0.05"/><rect x="631.0" y="14" width="241.0" height="29" rx="14.5" ry="14.5" fill="#ffffff" stroke="#e2dcc8" stroke-width="1"/><rect x="643.0" y="23.0" width="11" height="11" rx="2.5" ry="2.5" fill="#D86E3D"/><text x="660.0" y="32.5" fill="#1a1a1a" font-size="11.5">sarvam-30b</text><rect x="744.0" y="23.0" width="11" height="11" rx="2.5" ry="2.5" fill="#1F4D9B"/><text x="761.0" y="32.5" fill="#1a1a1a" font-size="11.5">gemma-4-26b-a4b</text></svg>